<?xml version="1.0" encoding="UTF-8" standalone="no"?><!-- Generator: Gravit.io --><svg xmlns="http://www.w3.org/2000/svg" xmlns:xlink="http://www.w3.org/1999/xlink" style="isolation:isolate" viewBox="135 33 85 85" width="85pt" height="85pt"><g><rect x="135" y="33" width="85" height="85" transform="matrix(1,0,0,1,0,0)" fill="none"/><circle vector-effect="non-scaling-stroke" cx="177.5" cy="75.49999999999997" r="39" fill="none" stroke-width="4" stroke="rgb(0,0,0)" stroke-linejoin="miter" stroke-linecap="square" stroke-miterlimit="3"/><path d=" M 177.498 49.95 C 163.387 49.95 151.946 61.679 151.946 76.147 C 151.946 87.722 159.267 97.54 169.422 101.005 C 170.7 101.245 171.166 100.436 171.166 99.741 C 171.166 99.12 171.144 97.472 171.132 95.286 C 164.024 96.869 162.524 91.774 162.524 91.774 C 161.361 88.749 159.686 87.943 159.686 87.943 C 157.366 86.318 159.862 86.35 159.862 86.35 C 162.427 86.536 163.776 89.05 163.776 89.05 C 166.055 93.053 169.757 91.896 171.213 91.227 C 171.445 89.534 172.104 88.379 172.835 87.725 C 167.161 87.064 161.195 84.816 161.195 74.777 C 161.195 71.918 162.191 69.58 163.826 67.748 C 163.562 67.085 162.685 64.422 164.075 60.815 C 164.075 60.815 166.221 60.111 171.103 63.501 C 173.141 62.92 175.328 62.629 177.501 62.619 C 179.67 62.629 181.857 62.92 183.898 63.501 C 188.777 60.111 190.918 60.815 190.918 60.815 C 192.313 64.422 191.436 67.085 191.172 67.748 C 192.81 69.58 193.8 71.918 193.8 74.777 C 193.8 84.841 187.825 87.056 182.132 87.704 C 183.049 88.513 183.867 90.111 183.867 92.556 C 183.867 96.057 183.835 98.882 183.835 99.741 C 183.835 100.442 184.295 101.258 185.592 101.002 C 195.739 97.53 203.054 87.718 203.054 76.147 C 203.054 61.679 191.612 49.95 177.498 49.95 Z " fill-rule="evenodd" fill="rgb(0,0,0)"/></g></svg>