<?xml version="1.0" encoding="UTF-8" standalone="no"?><!-- Generator: Gravit.io --><svg xmlns="http://www.w3.org/2000/svg" xmlns:xlink="http://www.w3.org/1999/xlink" style="isolation:isolate" viewBox="359.874 33 85 85" width="85pt" height="85pt"><g><rect x="359.874" y="33" width="85" height="85" transform="matrix(1,0,0,1,0,0)" fill="none"/><circle vector-effect="non-scaling-stroke" cx="402.37386584179836" cy="75.49999999999993" r="39" fill="none" stroke-width="4" stroke="rgb(0,0,0)" stroke-linejoin="miter" stroke-linecap="square" stroke-miterlimit="3"/><path d=" M 408.397 63.368 C 406.826 63.296 406.353 63.283 402.374 63.283 C 398.394 63.283 397.924 63.298 396.353 63.368 C 392.309 63.553 390.427 65.467 390.242 69.479 C 390.172 71.05 390.155 71.521 390.155 75.5 C 390.155 79.479 390.172 79.95 390.242 81.523 C 390.427 85.524 392.301 87.449 396.353 87.634 C 397.922 87.704 398.394 87.721 402.374 87.721 C 406.355 87.721 406.826 87.707 408.397 87.634 C 412.441 87.451 414.321 85.531 414.508 81.523 C 414.578 79.952 414.593 79.479 414.593 75.5 C 414.593 71.521 414.578 71.05 414.508 69.479 C 414.321 65.469 412.436 63.553 408.397 63.368 Z  M 402.374 83.154 C 398.147 83.154 394.72 79.729 394.72 75.5 C 394.72 71.274 398.147 67.848 402.374 67.848 C 406.6 67.848 410.028 71.274 410.028 75.5 C 410.028 79.726 406.6 83.154 402.374 83.154 Z  M 410.331 69.334 C 409.343 69.334 408.542 68.533 408.542 67.545 C 408.542 66.557 409.343 65.757 410.331 65.757 C 411.318 65.757 412.119 66.557 412.119 67.545 C 412.119 68.531 411.318 69.334 410.331 69.334 Z  M 407.341 75.5 C 407.341 78.244 405.116 80.467 402.374 80.467 C 399.631 80.467 397.407 78.244 397.407 75.5 C 397.407 72.756 399.631 70.533 402.374 70.533 C 405.116 70.533 407.341 72.756 407.341 75.5 Z  M 402.374 49.95 C 388.264 49.95 376.824 61.39 376.824 75.5 C 376.824 89.61 388.264 101.05 402.374 101.05 C 416.484 101.05 427.924 89.61 427.924 75.5 C 427.924 61.39 416.484 49.95 402.374 49.95 Z  M 417.189 81.645 C 416.944 87.064 413.927 90.066 408.521 90.315 C 406.93 90.387 406.421 90.404 402.374 90.404 C 398.326 90.404 397.82 90.387 396.229 90.315 C 390.812 90.066 387.808 87.059 387.559 81.645 C 387.487 80.056 387.47 79.548 387.47 75.5 C 387.47 71.452 387.487 70.946 387.559 69.355 C 387.808 63.939 390.815 60.934 396.229 60.687 C 397.82 60.613 398.326 60.596 402.374 60.596 C 406.421 60.596 406.93 60.613 408.521 60.687 C 413.939 60.936 416.946 63.949 417.189 69.355 C 417.261 70.946 417.278 71.452 417.278 75.5 C 417.278 79.548 417.261 80.056 417.189 81.645 Z " fill="rgb(0,0,0)"/></g></svg>