<?xml version="1.0" encoding="UTF-8" standalone="no"?><!-- Generator: Gravit.io --><svg xmlns="http://www.w3.org/2000/svg" xmlns:xlink="http://www.w3.org/1999/xlink" style="isolation:isolate" viewBox="472.311 33 85 85" width="85pt" height="85pt"><g><rect x="472.311" y="33" width="85" height="85" transform="matrix(1,0,0,1,0,0)" fill="none"/><circle vector-effect="non-scaling-stroke" cx="514.8107987626977" cy="75.49999999999993" r="39" fill="none" stroke-width="4" stroke="rgb(0,0,0)" stroke-linejoin="miter" stroke-linecap="square" stroke-miterlimit="3"/><path d=" M 514.811 49.95 C 500.701 49.95 489.261 61.39 489.261 75.5 C 489.261 89.61 500.701 101.05 514.811 101.05 C 528.921 101.05 540.361 89.61 540.361 75.5 C 540.361 61.39 528.921 49.95 514.811 49.95 L 514.811 49.95 L 514.811 49.95 Z  M 511.437 88.202 C 508.867 90.773 504.679 90.773 502.104 88.202 C 499.533 85.631 499.533 81.444 502.104 78.874 L 508.715 72.262 C 511.286 69.691 515.473 69.691 518.049 72.262 C 518.117 72.33 518.184 72.403 518.252 72.476 C 518.289 72.507 518.33 72.543 518.367 72.58 C 518.471 72.684 518.555 72.799 518.628 72.919 C 518.638 72.929 518.643 72.94 518.654 72.95 C 518.654 72.95 518.649 72.955 518.649 72.955 C 518.967 73.555 518.873 74.311 518.367 74.812 C 517.861 75.317 517.095 75.411 516.495 75.083 C 516.453 75.125 516.041 74.713 515.817 74.494 L 515.817 74.494 C 514.472 73.148 512.308 73.138 510.963 74.483 L 504.341 81.105 C 502.995 82.451 502.995 84.625 504.341 85.97 L 504.341 85.97 C 505.686 87.316 507.86 87.316 509.205 85.97 L 513.189 81.987 C 514.571 82.664 516.198 82.685 517.595 82.044 L 511.437 88.202 L 511.437 88.202 L 511.437 88.202 Z  M 527.513 72.126 L 520.906 78.738 C 518.336 81.309 514.149 81.309 511.573 78.738 C 511.505 78.67 511.437 78.597 511.369 78.524 C 511.333 78.493 511.291 78.456 511.26 78.42 C 511.156 78.316 511.072 78.201 510.999 78.081 C 510.989 78.071 510.984 78.06 510.973 78.05 C 510.973 78.05 510.978 78.045 510.978 78.045 C 510.66 77.445 510.754 76.689 511.26 76.188 C 511.766 75.682 512.532 75.594 513.132 75.917 C 513.174 75.875 513.585 76.287 513.81 76.506 L 513.81 76.506 C 515.155 77.852 517.319 77.862 518.664 76.517 L 525.286 69.895 C 526.632 68.549 526.632 66.375 525.286 65.03 L 525.286 65.03 C 523.941 63.684 521.767 63.684 520.421 65.03 L 516.427 69.013 C 515.051 68.341 513.419 68.315 512.021 68.956 L 518.179 62.798 C 520.75 60.227 524.937 60.227 527.513 62.798 C 530.089 65.369 530.089 69.556 527.513 72.126 L 527.513 72.126 L 527.513 72.126 Z " fill="rgb(0,0,0)"/></g></svg>