<?xml version="1.0" encoding="UTF-8" standalone="no"?><!-- Generator: Gravit.io --><svg xmlns="http://www.w3.org/2000/svg" xmlns:xlink="http://www.w3.org/1999/xlink" style="isolation:isolate" viewBox="580 33 85 85" width="85pt" height="85pt"><g><rect x="580" y="33" width="85" height="85" transform="matrix(1,0,0,1,0,0)" fill="none"/><circle vector-effect="non-scaling-stroke" cx="622.4999999999999" cy="75.49999999999993" r="39" fill="none" stroke-width="4" stroke="rgb(0,0,0)" stroke-linejoin="miter" stroke-linecap="square" stroke-miterlimit="3"/><path d=" M 622.5 49.95 C 608.39 49.95 596.95 61.39 596.95 75.5 C 596.95 89.61 608.39 101.05 622.5 101.05 C 636.61 101.05 648.05 89.61 648.05 75.5 C 648.05 61.39 636.61 49.95 622.5 49.95 Z  M 637.383 64.812 L 622.5 76.875 L 607.615 64.812 L 637.383 64.812 Z  M 637.404 86.103 L 607.596 86.103 L 607.596 67.995 L 622.5 80.073 L 637.404 67.997 L 637.404 86.103 Z " fill="rgb(0,0,0)"/></g></svg>