<?xml version="1.0" encoding="UTF-8" standalone="no"?><!-- Generator: Gravit.io --><svg xmlns="http://www.w3.org/2000/svg" xmlns:xlink="http://www.w3.org/1999/xlink" style="isolation:isolate" viewBox="247.437 33 85 85" width="85pt" height="85pt"><g><rect x="247.437" y="33" width="85" height="85" transform="matrix(1,0,0,1,0,0)" fill="none"/><circle vector-effect="non-scaling-stroke" cx="289.93693292089927" cy="75.49999999999996" r="39" fill="none" stroke-width="4" stroke="rgb(0,0,0)" stroke-linejoin="miter" stroke-linecap="square" stroke-miterlimit="3"/><path d=" M 305.039 72.602 C 296.809 67.715 283.235 67.266 275.378 69.651 C 274.116 70.034 272.782 69.321 272.401 68.06 C 272.018 66.798 272.729 65.464 273.992 65.081 C 283.012 62.343 298.003 62.873 307.477 68.496 C 308.611 69.17 308.983 70.634 308.311 71.768 C 307.639 72.902 306.173 73.277 305.039 72.602 Z  M 304.771 79.842 C 304.192 80.779 302.969 81.072 302.032 80.498 C 295.171 76.281 284.709 75.057 276.59 77.521 C 275.539 77.84 274.427 77.247 274.107 76.196 C 273.79 75.143 274.384 74.034 275.435 73.713 C 284.707 70.9 296.235 72.262 304.115 77.106 C 305.052 77.681 305.345 78.908 304.771 79.842 Z  M 301.645 86.793 C 301.188 87.547 300.207 87.783 299.458 87.323 C 293.462 83.659 285.916 82.832 277.029 84.862 C 276.173 85.057 275.32 84.521 275.124 83.666 C 274.929 82.808 275.463 81.955 276.32 81.759 C 286.046 79.536 294.388 80.494 301.118 84.606 C 301.869 85.064 302.105 86.045 301.645 86.793 Z  M 289.937 49.968 C 275.837 49.968 264.405 61.4 264.405 75.5 C 264.405 89.602 275.837 101.032 289.937 101.032 C 304.039 101.032 315.468 89.602 315.468 75.5 C 315.468 61.4 304.039 49.968 289.937 49.968 Z " fill-rule="evenodd" fill="rgb(0,0,0)"/></g></svg>