<?xml version="1.0" encoding="UTF-8" standalone="no"?><!-- Generator: Gravit.io --><svg xmlns="http://www.w3.org/2000/svg" xmlns:xlink="http://www.w3.org/1999/xlink" style="isolation:isolate" viewBox="22.563 33 85 85" width="85pt" height="85pt"><g><rect x="22.563" y="33" width="85" height="85" transform="matrix(1,0,0,1,0,0)" fill="none"/><circle vector-effect="non-scaling-stroke" cx="65.06306707910072" cy="75.49999999999997" r="39" fill="none" stroke-width="4" stroke="rgb(0,0,0)" stroke-linejoin="miter" stroke-linecap="square" stroke-miterlimit="3"/><path d=" M 65.063 49.95 C 50.953 49.95 39.513 61.39 39.513 75.5 C 39.513 89.61 50.953 101.05 65.063 101.05 C 79.173 101.05 90.613 89.61 90.613 75.5 C 90.613 61.39 79.173 49.95 65.063 49.95 Z  M 77.979 70.486 C 78.368 79.088 71.953 88.677 60.596 88.677 C 57.143 88.677 53.93 87.664 51.223 85.929 C 54.468 86.312 57.707 85.409 60.277 83.397 C 57.602 83.348 55.343 81.579 54.562 79.149 C 55.522 79.332 56.468 79.279 57.326 79.045 C 54.385 78.453 52.354 75.804 52.42 72.971 C 53.246 73.428 54.187 73.703 55.19 73.735 C 52.467 71.914 51.696 68.318 53.297 65.57 C 56.312 69.27 60.82 71.704 65.902 71.959 C 65.01 68.135 67.912 64.45 71.861 64.45 C 73.618 64.45 75.209 65.193 76.324 66.381 C 77.717 66.108 79.028 65.597 80.208 64.897 C 79.75 66.325 78.781 67.522 77.519 68.28 C 78.756 68.131 79.935 67.803 81.03 67.315 C 80.212 68.546 79.177 69.623 77.979 70.486 Z " fill="rgb(0,0,0)"/></g></svg>